<?xml version="1.0" standalone="no"?>
<!DOCTYPE svg PUBLIC "-//W3C//DTD SVG 20010904//EN"
 "http://www.w3.org/TR/2001/REC-SVG-20010904/DTD/svg10.dtd">
<svg version="1.0" xmlns="http://www.w3.org/2000/svg"
 width="11220.000000pt" height="7677.000000pt" viewBox="0 0 11220.000000 7677.000000"
 preserveAspectRatio="xMidYMid meet">

<g transform="translate(0.000000,7677.000000) scale(0.100000,-0.100000)"
fill="#000000" stroke="none">
<path d="M55315 71760 c-1982 -54 -3865 -274 -5745 -671 -7367 -1556 -13993
-5741 -18733 -11831 -2478 -3184 -4388 -6853 -5582 -10723 -2030 -6578 -2032
-13709 -5 -20285 725 -2353 1725 -4657 2953 -6805 2159 -3778 5047 -7110 8455
-9753 2551 -1980 5383 -3565 8367 -4685 4307 -1616 8896 -2265 13515 -1911
4459 341 8784 1629 12730 3791 3563 1953 6757 4590 9395 7758 1982 2380 3627
5031 4890 7880 2641 5957 3513 12621 2509 19150 -845 5490 -3033 10703 -6348
15120 -3308 4408 -7612 7888 -12539 10136 -3594 1641 -7462 2588 -11412 2794
-713 37 -1803 53 -2450 35z"/>
</g>
</svg>
